<svg width="85" height="77" viewBox="0 0 85 77" fill="none" xmlns="http://www.w3.org/2000/svg">
<g id="docment created rfor upload response">
<g id="Ellipse 156" filter="url(#filter0_i_1519_464)">
<ellipse cx="48.6504" cy="38.8514" rx="36.2793" ry="37.9803" fill="#D1F0FF" fill-opacity="0.9"/>
</g>
<g id="document">
<g id="Mask group">
<mask id="mask0_1519_464" style="mask-type:alpha" maskUnits="userSpaceOnUse" x="11" y="6" width="74" height="70">
<ellipse id="Ellipse 155" cx="48.377" cy="40.907" rx="36.5528" ry="34.6326" fill="#D9D9D9"/>
</mask>
<g mask="url(#mask0_1519_464)">
<g id="document created ">
<path id="Rectangle 277" d="M21.0791 36.1771C21.0791 28.5401 27.2701 22.3491 34.9071 22.3491H94.0691V35.0051C94.0691 43.2894 87.3533 50.0051 79.0691 50.0051H34.9071C27.2701 50.0051 21.0791 43.8141 21.0791 36.1771Z" fill="#1380FF"/>
<rect id="Rectangle 278" x="38.5957" y="30.9746" width="37.9548" height="1.12516" rx="0.562578" fill="white"/>
<rect id="Rectangle 279" x="38.5957" y="35.0938" width="23.3568" height="1.12516" rx="0.562578" fill="#88BFFF"/>
<rect id="Rectangle 280" x="38.5957" y="39.2134" width="15.5712" height="1.12516" rx="0.562578" fill="#88BFFF"/>
</g>
<g id="document created _2">
<path id="Rectangle 277_2" d="M34.3633 67.8412C34.3633 63.5894 37.8101 60.1426 42.0619 60.1426H74.9996V60.5397C74.9996 68.824 68.2839 75.5397 59.9996 75.5397H42.0619C37.8101 75.5397 34.3633 72.093 34.3633 67.8412Z" fill="#8ECAE6" fill-opacity="0.9"/>
<rect id="Rectangle 278_2" x="44.1152" y="64.9443" width="21.1309" height="1.36587" rx="0.682934" fill="white"/>
<rect id="Rectangle 279_2" x="44.1152" y="68.1172" width="13.0036" height="0.626417" rx="0.313209" fill="#88BFFF"/>
<rect id="Rectangle 280_2" x="44.1152" y="70.5508" width="8.66909" height="2.35674" rx="1.17837" fill="#00B4D8"/>
</g>
</g>
</g>
<g id="right mark">
<g id="Rectangle 281" filter="url(#filter1_d_1519_464)">
<rect x="17.3047" y="18.0625" width="30.7194" height="22.844" rx="11.422" fill="#0C417E"/>
</g>
<g id="Dollar Circle">
<path id="Vector" d="M33.4865 28.9208L33.4865 28.9208L33.3647 28.876L33.3647 26.1795C33.5675 26.2876 33.7431 26.4518 33.8663 26.6653L34.1167 27.0989C34.31 27.4337 34.7381 27.5484 35.0729 27.3551C35.4077 27.1618 35.5224 26.7337 35.3291 26.3989L35.0787 25.9653C34.6926 25.2964 34.0609 24.8583 33.3647 24.6978V24.6978C33.3647 24.3112 33.0513 23.9978 32.6647 23.9978C32.2781 23.9978 31.9647 24.3112 31.9647 24.6978V24.7519C31.7816 24.8096 31.6021 24.8879 31.4296 24.9875C29.4682 26.1199 29.7175 29.0262 31.8431 29.808L31.9647 29.8528V32.5493C31.762 32.4412 31.5865 32.277 31.4633 32.0636L31.2129 31.6299C31.0196 31.2951 30.5915 31.1804 30.2567 31.3737C29.9219 31.567 29.8072 31.9951 30.0005 32.3299L30.2509 32.7636C30.637 33.4324 31.2686 33.8705 31.9647 34.031V34.0311C31.9647 34.4177 32.2781 34.7311 32.6647 34.7311C33.0513 34.7311 33.3647 34.4177 33.3647 34.0311V33.977C33.5479 33.9193 33.7274 33.841 33.9 33.7414C35.8614 32.6089 35.6121 29.7026 33.4865 28.9208ZM31.9647 26.3121L31.9647 28.292C31.3505 27.802 31.3234 26.8237 31.9647 26.3121ZM33.3647 32.4168V30.4367C33.9791 30.9267 34.0062 31.9053 33.3647 32.4168ZM32.6647 21.9978C28.5962 21.9978 25.298 25.2959 25.298 29.3644C25.298 33.4329 28.5962 36.7311 32.6647 36.7311C36.7332 36.7311 40.0314 33.4329 40.0314 29.3644C40.0314 25.2959 36.7332 21.9978 32.6647 21.9978ZM26.698 29.3644C26.698 26.0691 29.3694 23.3978 32.6647 23.3978C35.96 23.3978 38.6314 26.0691 38.6314 29.3644C38.6314 32.6597 35.96 35.3311 32.6647 35.3311C29.3694 35.3311 26.698 32.6597 26.698 29.3644Z" fill="white" stroke="white" stroke-width="0.4" stroke-linecap="round"/>
</g>
</g>
</g>
</g>
<defs>
<filter id="filter0_i_1519_464" x="12.3711" y="-5.12891" width="72.5586" height="81.9609" filterUnits="userSpaceOnUse" color-interpolation-filters="sRGB">
<feFlood flood-opacity="0" result="BackgroundImageFix"/>
<feBlend mode="normal" in="SourceGraphic" in2="BackgroundImageFix" result="shape"/>
<feColorMatrix in="SourceAlpha" type="matrix" values="0 0 0 0 0 0 0 0 0 0 0 0 0 0 0 0 0 0 127 0" result="hardAlpha"/>
<feOffset dy="-18"/>
<feGaussianBlur stdDeviation="3"/>
<feComposite in2="hardAlpha" operator="arithmetic" k2="-1" k3="1"/>
<feColorMatrix type="matrix" values="0 0 0 0 0.958398 0 0 0 0 0.958398 0 0 0 0 0.958398 0 0 0 0.38 0"/>
<feBlend mode="normal" in2="shape" result="effect1_innerShadow_1519_464"/>
</filter>
<filter id="filter1_d_1519_464" x="0.304688" y="10.0625" width="64.7188" height="56.8438" filterUnits="userSpaceOnUse" color-interpolation-filters="sRGB">
<feFlood flood-opacity="0" result="BackgroundImageFix"/>
<feColorMatrix in="SourceAlpha" type="matrix" values="0 0 0 0 0 0 0 0 0 0 0 0 0 0 0 0 0 0 127 0" result="hardAlpha"/>
<feOffset dy="9"/>
<feGaussianBlur stdDeviation="8.5"/>
<feComposite in2="hardAlpha" operator="out"/>
<feColorMatrix type="matrix" values="0 0 0 0 0.14902 0 0 0 0 0.196078 0 0 0 0 0.219608 0 0 0 0.27 0"/>
<feBlend mode="normal" in2="BackgroundImageFix" result="effect1_dropShadow_1519_464"/>
<feBlend mode="normal" in="SourceGraphic" in2="effect1_dropShadow_1519_464" result="shape"/>
</filter>
</defs>
</svg>
