<svg width="60" height="58" viewBox="0 0 60 58" fill="none" xmlns="http://www.w3.org/2000/svg">
<g id="genrated icon">
<ellipse id="Ellipse 148" cx="30.006" cy="29.3732" rx="29.9728" ry="28.4454" fill="#9FC9EB" fill-opacity="0.17"/>
<g id="icon for accounts">
<ellipse id="Ellipse 149" cx="30.0062" cy="29.373" rx="13.431" ry="12.7466" stroke="#2684FF" stroke-width="2"/>
<g id="genrerated account icon">
<path id="Ellipse 149_2" d="M33.7497 26.3428C33.7497 28.4558 31.931 30.2553 29.578 30.2553C27.2249 30.2553 25.4062 28.4558 25.4062 26.3428C25.4062 24.2297 27.2249 22.4302 29.578 22.4302C31.931 22.4302 33.7497 24.2297 33.7497 26.3428Z" stroke="#2684FF" stroke-width="2"/>
<path id="Line 103" d="M23.6749 39.4364L23.713 37.3191C23.747 35.4305 24.5797 33.6535 26.0049 32.4284L26.4003 32.0886C28.2618 30.4885 31.0338 30.5207 32.893 32.164V32.164C34.5712 33.6473 35.5219 35.7853 35.4936 38.0123L35.4736 39.5862" stroke="#2684FF" stroke-width="2" stroke-linecap="round"/>
</g>
</g>
</g>
</svg>
